<?xml version="1.0" encoding="iso-8859-1"?>
<!-- Generator: Adobe Illustrator 18.0.0, SVG Export Plug-In . SVG Version: 6.00 Build 0)  -->
<!DOCTYPE svg PUBLIC "-//W3C//DTD SVG 1.1//EN" "http://www.w3.org/Graphics/SVG/1.1/DTD/svg11.dtd">
<svg version="1.1" id="Capa_1" xmlns="http://www.w3.org/2000/svg" xmlns:xlink="http://www.w3.org/1999/xlink" x="0px" y="0px"
	 viewBox="0 0 493.646 493.646" style="enable-background:new 0 0 493.646 493.646;" xml:space="preserve">
<path id="cup-3" style="fill:#000100;" d="M370.252,268.91c0.955,0.023,1.822,0.055,3.188,0.055
	c18.579,0,64.606-3.321,90.837-34.077c33.589-39.395,39.137-87.95,12.657-110.546c-8.533-7.278-19.58-11.121-31.941-11.121
	c-10.014,0-20.682,2.675-31.272,7.403c-24.095-42.878-173.159-45.248-205.151-45.248C173.736,75.377,0.032,78.154,0,132.968v0.009
	c0,0,0,0,0,0.009v0.009c0,64.007,27.463,121.413,70.681,160.831c-40.101,10.706-70.533,27.85-70.533,54.436
	c0,55.257,131.104,70.007,208.569,70.007c77.461,0,208.551-14.75,208.551-70.007c0-26.586-30.434-43.73-70.533-54.436
	C355.17,286.137,363.112,277.899,370.252,268.91z M455.103,149.919c10.244,8.722,5.401,37.591-16.397,63.158
	c-11.379,13.32-30.617,18.671-45.814,20.829c12.033-23.237,20.008-48.997,23.047-76.299c10.979-7.32,21.504-10.765,29.055-10.765
	C449.309,146.842,452.703,147.875,455.103,149.919z M208.568,108.997c95.187,0,153.742,14.229,171.139,23.989
	c-17.396,9.751-75.951,23.98-171.139,23.98c-95.209,0-153.759-14.229-171.157-23.98C54.81,123.226,113.359,108.997,208.568,108.997z
	 M383.697,347.897c-3.215,10.465-59.979,36.751-174.98,36.751c-115.006,0-171.785-26.286-174.986-36.037
	c1.905-6.231,22.951-18.039,63.809-26.609c-0.706,2.094-1.186,4.275-1.186,6.656c0,30.691,61.096,37.13,112.363,37.13
	c51.244,0,112.34-6.439,112.34-37.13c0-2.394-0.489-4.594-1.195-6.707C360.733,330.449,381.793,342.095,383.697,347.897z"/>
<g>
</g>
<g>
</g>
<g>
</g>
<g>
</g>
<g>
</g>
<g>
</g>
<g>
</g>
<g>
</g>
<g>
</g>
<g>
</g>
<g>
</g>
<g>
</g>
<g>
</g>
<g>
</g>
<g>
</g>
</svg>
