<?xml version='1.0' encoding='iso-8859-1'?>
<!DOCTYPE svg PUBLIC '-//W3C//DTD SVG 1.1//EN' 'http://www.w3.org/Graphics/SVG/1.1/DTD/svg11.dtd'>
<svg version="1.1" xmlns="http://www.w3.org/2000/svg" viewBox="0 0 260.553 260.553" xmlns:xlink="http://www.w3.org/1999/xlink" enable-background="new 0 0 260.553 260.553">
  <g>
    <path d="m259.02,112.433l-28.704-51.816c-0.881-1.59-2.556-2.577-4.374-2.577h-40.044c-1.877,0-3.596,1.051-4.451,2.722l-9.399,18.359-12.072-21.418c-1.063-1.887-3.061-3.054-5.227-3.054h-49.809c-2.165,0-4.163,1.167-5.227,3.053l-11.62,20.613-8.986-17.553c-0.855-1.671-2.574-2.722-4.451-2.722h-40.045c-1.818,0-3.493,0.987-4.374,2.577l-28.703,51.815c-3.176,5.729-1.272,12.874 4.333,16.266 5.648,3.42 13.087,1.64 16.579-3.961l10.83-17.363v15.945l-14.881,84.552c-0.45,2.555 1.129,5.029 3.636,5.698 0,0 16.662,4.383 17.094,4.383 0.914,0 1.819-0.25 2.612-0.737 1.168-0.716 1.991-1.879 2.277-3.218l10.619-49.69 10.618,49.69c0.286,1.339 1.109,2.502 2.277,3.218 1.167,0.716 2.579,0.922 3.9,0.568l15.806-4.214c0.676-0.18 1.276-0.5 1.796-0.909l-5.747,31.212c-0.567,3.08 1.329,6.077 4.354,6.884l20.523,5.472c1.567,0.419 3.239,0.184 4.631-0.651 1.392-0.834 2.387-2.197 2.757-3.777l14.295-60.999 14.296,60.999c0.37,1.58 1.365,2.943 2.757,3.777 0.94,0.564 2.008,0.854 3.085,0.854 0.518,0 22.068-5.675 22.068-5.675 3.025-0.807 4.922-3.804 4.354-6.884l-5.961-32.376c0.654,0.986 1.65,1.746 2.874,2.073l15.806,4.214c1.322,0.354 2.732,0.148 3.9-0.568s1.991-1.879 2.277-3.218l10.618-49.69 10.619,49.69c0.286,1.339 1.109,2.502 2.277,3.218 0.793,0.486 1.698,0.737 2.612,0.737 0.432,0 17.094-4.383 17.094-4.383 2.507-0.668 4.086-3.143 3.636-5.698l-14.881-84.552v-15.945l10.83,17.363c3.492,5.602 10.929,7.379 16.58,3.961 5.607-3.392 7.51-10.536 4.336-16.265zm-9.51,7.709c-0.992,0.599-2.304,0.29-2.919-0.697l-20.072-32.181c-1.181-1.893-3.472-2.773-5.618-2.161-2.146,0.614-3.624,2.576-3.624,4.807v28.829h-22.714v-28.829c0-2.244-1.495-4.213-3.656-4.816-2.166-0.604-4.461,0.308-5.622,2.228l-4.46,7.371-2.89-5.127 11.02-21.526h11.964v32.1c0,2.761 2.238,5 5,5s5-2.239 5-5v-32.1h12.076l27.277,49.24c0.559,1.008 0.224,2.265-0.762,2.862zm-24.291,86.625l-14.41-67.431c-0.493-2.307-2.531-3.955-4.89-3.955s-4.396,1.648-4.89,3.955l-14.409,67.431-6.296-1.679 11.286-64.121c3.996-2.948 6.176-7.521 6.165-12.228h20.302l13.438,76.35-6.296,1.678zm-70.806,36.273l-18.727-79.903c-0.636-2.713-3.056-4.631-5.842-4.631-2.786,0-5.206,1.918-5.842,4.631l-18.726,79.903-9.188-2.45 16.841-91.46h33.829l16.841,91.46-9.186,2.45zm-80.48-36.273l-14.409-67.431c-0.493-2.307-2.531-3.955-4.89-3.955s-4.396,1.648-4.89,3.955l-14.41,67.431-6.296-1.679 13.438-76.35h19.428c-0.012,5.081 2.534,10.004 7.156,12.896l11.169,63.454-6.296,1.679zm-62.89-86.625c-0.986-0.597-1.321-1.854-0.762-2.863l27.277-49.239h12.076v32.1c0,2.761 2.238,5 5,5s5-2.239 5-5v-32.1h11.964l10.607,20.719-2.926,5.191-4.01-6.627c-1.162-1.92-3.458-2.832-5.622-2.228-2.161,0.603-3.656,2.572-3.656,4.816v27.607l-.688,1.221h-22.027v-28.829c0-2.231-1.479-4.193-3.624-4.807-2.146-0.612-4.438,0.268-5.618,2.161l-20.072,32.181c-0.615,0.986-1.925,1.298-2.919,0.697zm112.802-53.493v42.173c0,3.313 2.687,6 6,6 3.313,0 6-2.687 6-6v-42.173h15.398l34.107,60.511c0.859,1.526 0.359,3.432-1.14,4.339-1.502,0.909-3.479,0.435-4.405-1.058l-23.624-38.066c-1.413-2.277-4.166-3.342-6.742-2.606-2.578,0.735-4.355,3.09-4.355,5.77v41.59h-30.479v-41.59c0-2.68-1.777-5.035-4.354-5.77-2.578-0.737-5.33,0.329-6.743,2.605l-23.634,38.068c-0.926,1.493-2.903,1.966-4.406,1.058-1.499-0.907-1.999-2.813-1.139-4.339l34.116-60.511h15.4zm-44.262,77.084c4.195-0.69 8.087-3.097 10.486-6.962l12.536-20.193v22.36l-12.203,66.271-10.819-61.476zm90.145,63.874l-12.644-68.669v-22.354l12.526,20.184c2.561,4.127 6.823,6.592 11.339,7.077l-11.221,63.762z"/>
    <path d="m205.919,54.778c9.829,0 17.826-7.997 17.826-17.826s-7.997-17.826-17.826-17.826-17.825,7.997-17.825,17.826 7.996,17.826 17.825,17.826zm0-25.651c4.315,0 7.826,3.511 7.826,7.826s-3.511,7.826-7.826,7.826c-4.314,0-7.825-3.511-7.825-7.826s3.511-7.826 7.825-7.826z"/>
    <path d="m54.634,54.778c9.829,0 17.825-7.997 17.825-17.826s-7.996-17.826-17.825-17.826-17.826,7.997-17.826,17.826 7.997,17.826 17.826,17.826zm0-25.651c4.314,0 7.825,3.511 7.825,7.826s-3.511,7.826-7.825,7.826c-4.315,0-7.826-3.511-7.826-7.826s3.51-7.826 7.826-7.826z"/>
    <path d="m129.845,49.43c12.491,0 22.654-10.163 22.654-22.654s-10.163-22.654-22.654-22.654-22.653,10.163-22.653,22.654 10.162,22.654 22.653,22.654zm0-33.308c5.875,0 10.654,4.779 10.654,10.654s-4.779,10.654-10.654,10.654c-5.874,0-10.653-4.779-10.653-10.654s4.779-10.654 10.653-10.654z"/>
  </g>
</svg>
