<?xml version="1.0" encoding="iso-8859-1"?>
<!-- Generator: Adobe Illustrator 18.0.0, SVG Export Plug-In . SVG Version: 6.00 Build 0)  -->
<!DOCTYPE svg PUBLIC "-//W3C//DTD SVG 1.1//EN" "http://www.w3.org/Graphics/SVG/1.1/DTD/svg11.dtd">
<svg version="1.1" id="Capa_1" xmlns="http://www.w3.org/2000/svg" xmlns:xlink="http://www.w3.org/1999/xlink" x="0px" y="0px"
	 viewBox="0 0 294.841 294.841" style="enable-background:new 0 0 294.841 294.841;" xml:space="preserve">
<g>
	<path d="M64.78,72.898c13.162,0,23.831-10.662,23.831-23.831c0-13.161-10.669-23.823-23.831-23.823
		c-13.165,0-23.832,10.662-23.832,23.823C40.948,62.236,51.615,72.898,64.78,72.898z"/>
	<path d="M93.667,98h63.99c5.629,0,10.191-4.563,10.191-10.191s-4.563-10.191-10.191-10.191
		c-54.999-0.031-111.486-0.041-112.848,0.027c-4.092,0.205-8.1,1.982-9.903,5.932L0.923,158.024
		c-2.337,5.121-0.081,11.166,5.039,13.504c5.128,2.34,11.169,0.075,13.504-5.039l16.424-35.979c0,40.338-0.03,126.857-0.03,126.857
		c0,6.755,5.476,12.23,12.231,12.23s12.23-5.476,12.23-12.23v-72.879h8.917v72.879c0,6.755,5.476,12.23,12.23,12.23
		c6.755,0,12.23-5.476,12.23-12.23C93.698,111.141,93.667,194.591,93.667,98z"/>
	<path d="M290.206,154.464h-15.892l-11.085-27.976c-2.397-6.05-8.246-10.023-14.754-10.023h-85.578
		c-6.604,0-12.517,4.089-14.848,10.267l-10.466,27.733h-15.608c-2.56,0-4.635,2.075-4.635,4.635v8.73
		c0,2.559,2.075,4.635,4.635,4.635h10.781v35.966c0,5.817,4.716,10.534,10.534,10.534h4.8v3c0,8.284,6.716,15,15,15s15-6.716,15-15
		v-3h56v3c0,8.284,6.716,15,15,15c8.284,0,15-6.716,15-15v-3h4.799c5.818,0,10.534-4.717,10.534-10.534v-35.966h10.782
		c2.56,0,4.635-2.075,4.635-4.635v-8.73C294.841,156.539,292.765,154.464,290.206,154.464z M180.249,194.412
		c0,2.609-2.162,4.636-4.635,4.636h-25.047c-2.475,0-4.635-2.027-4.635-4.636v-8.729c0-2.609,2.162-4.636,4.635-4.636h25.047
		c2.475,0,4.635,2.027,4.635,4.636V194.412z M266.249,194.412c0,2.609-2.162,4.636-4.635,4.636h-25.047
		c-2.475,0-4.635-2.027-4.635-4.636v-8.729c0-2.609,2.162-4.636,4.635-4.636h25.047c2.475,0,4.635,2.027,4.635,4.636V194.412z"/>
	<path d="M191.341,108.464h29.5c4.143,0,7.5-3.357,7.5-7.5c0-4.143-3.357-7.5-7.5-7.5h-29.5c-4.143,0-7.5,3.357-7.5,7.5
		C183.841,105.107,187.198,108.464,191.341,108.464z"/>
</g>
<g>
</g>
<g>
</g>
<g>
</g>
<g>
</g>
<g>
</g>
<g>
</g>
<g>
</g>
<g>
</g>
<g>
</g>
<g>
</g>
<g>
</g>
<g>
</g>
<g>
</g>
<g>
</g>
<g>
</g>
</svg>
